<?xml version="1.0" encoding="UTF-8" standalone="no"?>
<svg
   xmlns:dc="http://purl.org/dc/elements/1.1/"
   xmlns:cc="http://creativecommons.org/ns#"
   xmlns:rdf="http://www.w3.org/1999/02/22-rdf-syntax-ns#"
   xmlns:svg="http://www.w3.org/2000/svg"
   xmlns="http://www.w3.org/2000/svg"
   viewBox="0 0 715.37067 336.78934"
   height="336.78934"
   width="715.37067"
   xml:space="preserve"
   id="svg2"
   version="1.1"><metadata
     id="metadata8"><rdf:RDF><cc:Work
         rdf:about=""><dc:format>image/svg+xml</dc:format><dc:type
           rdf:resource="http://purl.org/dc/dcmitype/StillImage" /></cc:Work></rdf:RDF></metadata><defs
     id="defs6"><clipPath
       id="clipPath18"
       clipPathUnits="userSpaceOnUse"><path
         id="path16"
         d="M 0,252.592 H 536.528 V 0 H 0 Z" /></clipPath></defs><g
     transform="matrix(1.3333333,0,0,-1.3333333,0,336.78933)"
     id="g10"><g
       id="g12"><g
         clip-path="url(#clipPath18)"
         id="g14"><g
           transform="translate(181.7969,157.2605)"
           id="g20"><path
             id="path22"
             style="fill:#f0dfc0;fill-opacity:1;fill-rule:nonzero;stroke:none"
             d="m 0,0 c 0,18.881 15.362,34.243 34.243,34.243 18.881,0 34.243,-15.362 34.243,-34.243 0,-1.662 -0.126,-3.293 -0.356,-4.892 h 19.69 c 0.146,1.613 0.233,3.242 0.233,4.892 0,29.671 -24.139,53.81 -53.81,53.81 -29.671,0 -53.81,-24.139 -53.81,-53.81 0,-1.65 0.086,-3.279 0.233,-4.892 H 0.355 C 0.125,-3.293 0,-1.662 0,0" /></g><g
           transform="translate(143.1519,157.2605)"
           id="g24"><path
             id="path26"
             style="fill:#f0dfc0;fill-opacity:1;fill-rule:nonzero;stroke:none"
             d="m 0,0 c 0,40.19 32.697,72.888 72.888,72.888 40.19,0 72.888,-32.698 72.888,-72.888 0,-1.646 -0.074,-3.273 -0.182,-4.892 h 19.62 c 0.085,1.62 0.129,3.251 0.129,4.892 0,50.98 -41.475,92.455 -92.455,92.455 -50.98,0 -92.455,-41.475 -92.455,-92.455 0,-1.641 0.044,-3.272 0.129,-4.892 H 0.182 C 0.074,-3.273 0,-1.646 0,0" /></g><g
           transform="translate(71.3662,119.4875)"
           id="g28"><path
             id="path30"
             style="fill:#ef3a3b;fill-opacity:1;fill-rule:nonzero;stroke:none"
             d="m 0,0 -14.936,-14.936 c -6.069,6.01 -11.577,9.015 -16.526,9.015 -2.711,0 -4.832,-0.575 -6.364,-1.723 -1.533,-1.149 -2.298,-2.579 -2.298,-4.287 0,-1.297 0.487,-2.489 1.458,-3.579 0.973,-1.091 3.373,-2.578 7.204,-4.463 l 8.837,-4.419 c 9.309,-4.596 15.701,-9.28 19.178,-14.052 3.476,-4.772 5.215,-10.371 5.215,-16.792 0,-8.543 -3.138,-15.673 -9.413,-21.387 -6.275,-5.715 -14.686,-8.573 -25.231,-8.573 -14.023,0 -25.219,5.48 -33.584,16.438 l 14.847,16.174 c 2.828,-3.301 6.143,-5.966 9.943,-7.999 3.8,-2.032 7.172,-3.049 10.119,-3.049 3.182,0 5.745,0.765 7.689,2.298 1.945,1.532 2.916,3.299 2.916,5.303 0,3.712 -3.506,7.335 -10.516,10.87 l -8.131,4.066 c -15.554,7.835 -23.332,17.644 -23.332,29.429 0,7.601 2.93,14.097 8.794,19.487 5.861,5.392 13.358,8.087 22.492,8.087 6.244,0 12.121,-1.37 17.631,-4.109 C -8.5,9.059 -3.831,5.126 0,0" /></g><g
           transform="translate(139.2954,113.1247)"
           id="g32"><path
             id="path34"
             style="fill:#ef3a3b;fill-opacity:1;fill-rule:nonzero;stroke:none"
             d="m 0,0 c -7.601,0 -13.906,-2.594 -18.913,-7.777 -5.008,-5.185 -7.512,-11.962 -7.512,-20.327 0,-8.544 2.504,-15.453 7.512,-20.725 5.007,-5.274 11.312,-7.91 18.913,-7.91 7.365,0 13.566,2.681 18.604,8.043 5.038,5.36 7.556,12.196 7.556,20.503 0,8.249 -2.474,15.009 -7.424,20.283 C 13.787,-2.638 7.542,0 0,0 M -25.364,19.796 V 9.191 c 4.36,4.36 9.072,7.63 14.14,9.81 5.067,2.179 10.487,3.27 16.262,3.27 12.549,0 23.212,-4.743 31.992,-14.229 8.779,-9.487 13.169,-21.652 13.169,-36.5 0,-14.317 -4.538,-26.292 -13.611,-35.925 -9.073,-9.634 -19.827,-14.45 -32.257,-14.45 -5.539,0 -10.694,0.987 -15.466,2.961 -4.773,1.973 -9.516,5.199 -14.229,9.677 v -45.338 h -23.95 V 19.796 Z" /></g><path
           id="path36"
           style="fill:#ef3a3b;fill-opacity:1;fill-rule:nonzero;stroke:none"
           d="m 205.042,132.921 h 24.127 V 36.766 h -24.127 z m 12.063,39.593 c 4.23,0 7.858,-1.533 10.884,-4.595 3.025,-3.064 4.539,-6.776 4.539,-11.136 0,-4.301 -1.498,-7.969 -4.495,-11.002 -2.997,-3.036 -6.58,-4.552 -10.751,-4.552 -4.289,0 -7.947,1.547 -10.972,4.639 -3.026,3.094 -4.538,6.85 -4.538,11.268 0,4.243 1.497,7.866 4.494,10.871 2.996,3.005 6.609,4.507 10.839,4.507" /><g
           transform="translate(250.3452,132.9211)"
           id="g38"><path
             id="path40"
             style="fill:#ef3a3b;fill-opacity:1;fill-rule:nonzero;stroke:none"
             d="m 0,0 h 24.127 v -9.854 c 5.471,4.612 10.428,7.82 14.87,9.623 4.441,1.804 8.987,2.706 13.634,2.706 9.532,0 17.62,-3.329 24.27,-9.987 5.588,-5.656 8.383,-14.023 8.383,-25.099 V -96.155 H 61.421 v 42.108 c 0,11.475 -0.514,19.095 -1.542,22.862 -1.03,3.768 -2.822,6.635 -5.379,8.607 -2.559,1.972 -5.715,2.958 -9.478,2.958 -4.878,0 -9.067,-1.633 -12.562,-4.9 -3.499,-3.267 -5.923,-7.783 -7.274,-13.55 -0.707,-3.002 -1.059,-9.505 -1.059,-19.508 V -96.155 H 0 Z" /></g><g
           transform="translate(357.1323,132.9211)"
           id="g42"><path
             id="path44"
             style="fill:#ef3a3b;fill-opacity:1;fill-rule:nonzero;stroke:none"
             d="m 0,0 h 24.127 v -9.854 c 5.471,4.612 10.427,7.82 14.87,9.623 4.441,1.804 8.987,2.706 13.635,2.706 9.531,0 17.62,-3.329 24.269,-9.987 5.589,-5.656 8.384,-14.023 8.384,-25.099 V -96.155 H 61.422 v 42.108 c 0,11.475 -0.515,19.095 -1.543,22.862 -1.029,3.768 -2.821,6.635 -5.379,8.607 -2.558,1.972 -5.715,2.958 -9.477,2.958 -4.878,0 -9.067,-1.633 -12.563,-4.9 -3.498,-3.267 -5.922,-7.783 -7.275,-13.55 -0.706,-3.002 -1.058,-9.505 -1.058,-19.508 V -96.155 H 0 Z" /></g><g
           transform="translate(461.3408,132.9211)"
           id="g46"><path
             id="path48"
             style="fill:#ef3a3b;fill-opacity:1;fill-rule:nonzero;stroke:none"
             d="m 0,0 h 20.68 v -12.108 c 2.239,4.773 5.215,8.396 8.925,10.871 3.713,2.474 7.778,3.712 12.198,3.712 3.121,0 6.391,-0.827 9.809,-2.475 L 44.1,-20.769 c -2.829,1.415 -5.156,2.122 -6.982,2.122 -3.712,0 -6.849,-2.298 -9.412,-6.894 -2.563,-4.596 -3.845,-13.61 -3.845,-27.043 l 0.088,-4.685 V -96.155 H 0 Z" /></g><g
           transform="translate(515.0186,61.9538)"
           id="g50"><path
             id="path52"
             style="fill:#ef3a3b;fill-opacity:1;fill-rule:nonzero;stroke:none"
             d="m 0,0 c 3.828,0 7.099,-1.341 9.81,-4.021 2.71,-2.682 4.065,-5.937 4.065,-9.766 0,-3.831 -1.355,-7.101 -4.065,-9.81 -2.711,-2.709 -5.982,-4.065 -9.81,-4.065 -3.831,0 -7.101,1.356 -9.811,4.065 -2.71,2.709 -4.065,5.979 -4.065,9.81 0,3.829 1.355,7.084 4.065,9.766 C -7.101,-1.341 -3.831,0 0,0" /></g></g></g></g></svg>