<?xml version="1.0" encoding="UTF-8" standalone="no"?>
<svg
   xmlns:dc="http://purl.org/dc/elements/1.1/"
   xmlns:cc="http://creativecommons.org/ns#"
   xmlns:rdf="http://www.w3.org/1999/02/22-rdf-syntax-ns#"
   xmlns:svg="http://www.w3.org/2000/svg"
   xmlns="http://www.w3.org/2000/svg"
   viewBox="0 0 715.37067 336.78934"
   height="336.78934"
   width="715.37067"
   xml:space="preserve"
   id="svg2"
   version="1.1"><metadata
     id="metadata8"><rdf:RDF><cc:Work
         rdf:about=""><dc:format>image/svg+xml</dc:format><dc:type
           rdf:resource="http://purl.org/dc/dcmitype/StillImage" /></cc:Work></rdf:RDF></metadata><defs
     id="defs6"><clipPath
       id="clipPath18"
       clipPathUnits="userSpaceOnUse"><path
         id="path16"
         d="M 0,252.592 H 536.528 V 0 H 0 Z" /></clipPath></defs><g
     transform="matrix(1.3333333,0,0,-1.3333333,0,336.78933)"
     id="g10"><g
       id="g12"><g
         clip-path="url(#clipPath18)"
         id="g14"><g
           transform="translate(185.2681,158.2439)"
           id="g20"><path
             id="path22"
             style="fill:#232323;fill-opacity:1;fill-rule:nonzero;stroke:none"
             d="m 0,0 c 0,18.807 15.301,34.108 34.108,34.108 18.807,0 34.108,-15.301 34.108,-34.108 0,-1.654 -0.125,-3.28 -0.354,-4.873 h 19.613 c 0.146,1.607 0.232,3.23 0.232,4.873 0,29.555 -24.045,53.599 -53.599,53.599 -29.554,0 -53.599,-24.044 -53.599,-53.599 0,-1.643 0.086,-3.266 0.232,-4.873 H 0.354 C 0.125,-3.28 0,-1.654 0,0" /></g><g
           transform="translate(146.7744,158.2439)"
           id="g24"><path
             id="path26"
             style="fill:#232323;fill-opacity:1;fill-rule:nonzero;stroke:none"
             d="m 0,0 c 0,40.033 32.569,72.602 72.602,72.602 40.032,0 72.601,-32.569 72.601,-72.602 0,-1.639 -0.074,-3.26 -0.182,-4.873 h 19.543 c 0.085,1.614 0.129,3.239 0.129,4.873 0,50.78 -41.312,92.092 -92.091,92.092 C 21.822,92.092 -19.49,50.78 -19.49,0 c 0,-1.634 0.044,-3.259 0.129,-4.873 H 0.182 C 0.074,-3.26 0,-1.639 0,0" /></g><g
           transform="translate(77.271,120.6199)"
           id="g28"><path
             id="path30"
             style="fill:#f0dfc0;fill-opacity:1;fill-rule:nonzero;stroke:none"
             d="m 0,0 -14.877,-14.877 c -6.045,5.986 -11.532,8.979 -16.462,8.979 -2.7,0 -4.812,-0.572 -6.338,-1.716 -1.527,-1.145 -2.289,-2.568 -2.289,-4.27 0,-1.291 0.485,-2.48 1.453,-3.565 0.969,-1.087 3.359,-2.568 7.174,-4.446 l 8.803,-4.401 c 9.272,-4.578 15.639,-9.244 19.103,-13.997 3.462,-4.754 5.194,-10.33 5.194,-16.726 0,-8.51 -3.126,-15.611 -9.375,-21.303 -6.251,-5.693 -14.629,-8.539 -25.133,-8.539 -13.968,0 -25.119,5.458 -33.452,16.374 l 14.789,16.109 c 2.817,-3.288 6.118,-5.942 9.904,-7.967 3.785,-2.024 7.144,-3.037 10.079,-3.037 3.169,0 5.722,0.762 7.659,2.289 1.936,1.526 2.905,3.286 2.905,5.282 0,3.697 -3.492,7.307 -10.476,10.828 l -8.099,4.049 c -15.493,7.804 -23.239,17.576 -23.239,29.314 0,7.571 2.918,14.041 8.759,19.411 5.838,5.37 13.306,8.055 22.403,8.055 6.22,0 12.074,-1.365 17.562,-4.094 C -8.466,9.023 -3.816,5.106 0,0" /></g><g
           transform="translate(142.9336,114.282)"
           id="g32"><path
             id="path34"
             style="fill:#f0dfc0;fill-opacity:1;fill-rule:nonzero;stroke:none"
             d="m 0,0 c -7.571,0 -13.852,-2.583 -18.839,-7.747 -4.988,-5.165 -7.482,-11.914 -7.482,-20.247 0,-8.51 2.494,-15.391 7.482,-20.643 4.987,-5.253 11.268,-7.879 18.839,-7.879 7.335,0 13.513,2.67 18.53,8.011 5.018,5.339 7.527,12.149 7.527,20.423 0,8.216 -2.465,14.95 -7.395,20.203 C 13.732,-2.627 7.511,0 0,0 M -25.265,19.719 V 9.155 c 4.343,4.343 9.037,7.599 14.085,9.771 5.047,2.171 10.445,3.258 16.198,3.258 12.5,0 23.121,-4.725 31.866,-14.173 8.744,-9.45 13.117,-21.568 13.117,-36.357 0,-14.261 -4.52,-26.189 -13.557,-35.784 -9.038,-9.596 -19.749,-14.393 -32.131,-14.393 -5.517,0 -10.651,0.983 -15.405,2.949 -4.754,1.966 -9.478,5.178 -14.173,9.639 v -45.159 H -49.121 V 19.719 Z" /></g><path
           id="path36"
           style="fill:#f0dfc0;fill-opacity:1;fill-rule:nonzero;stroke:none"
           d="m 208.422,134.001 h 24.032 V 38.224 h -24.032 z m 12.015,39.437 c 4.214,0 7.827,-1.527 10.841,-4.577 3.014,-3.053 4.521,-6.75 4.521,-11.092 0,-4.285 -1.492,-7.938 -4.477,-10.96 -2.985,-3.023 -6.554,-4.533 -10.708,-4.533 -4.273,0 -7.916,1.54 -10.929,4.621 -3.015,3.081 -4.52,6.822 -4.52,11.224 0,4.225 1.49,7.834 4.475,10.827 2.985,2.994 6.584,4.49 10.797,4.49" /><g
           transform="translate(253.5464,134.0007)"
           id="g38"><path
             id="path40"
             style="fill:#f0dfc0;fill-opacity:1;fill-rule:nonzero;stroke:none"
             d="m 0,0 h 24.032 v -9.816 c 5.449,4.594 10.387,7.79 14.812,9.586 4.424,1.796 8.952,2.695 13.581,2.695 9.493,0 17.551,-3.317 24.174,-9.948 5.566,-5.634 8.35,-13.968 8.35,-25 V -95.777 H 61.18 v 41.943 c 0,11.43 -0.512,19.019 -1.536,22.772 -1.026,3.752 -2.811,6.608 -5.358,8.573 -2.549,1.964 -5.693,2.946 -9.44,2.946 -4.86,0 -9.032,-1.627 -12.513,-4.88 -3.485,-3.254 -5.9,-7.753 -7.246,-13.498 -0.705,-2.99 -1.055,-9.467 -1.055,-19.431 V -95.777 H 0 Z" /></g><g
           transform="translate(359.9141,134.0007)"
           id="g42"><path
             id="path44"
             style="fill:#f0dfc0;fill-opacity:1;fill-rule:nonzero;stroke:none"
             d="m 0,0 h 24.032 v -9.816 c 5.45,4.594 10.386,7.79 14.812,9.586 4.423,1.796 8.951,2.695 13.581,2.695 9.493,0 17.551,-3.317 24.174,-9.948 5.566,-5.634 8.35,-13.968 8.35,-25 V -95.777 H 61.181 v 41.943 c 0,11.43 -0.513,19.019 -1.537,22.772 -1.026,3.752 -2.811,6.608 -5.359,8.573 -2.547,1.964 -5.692,2.946 -9.439,2.946 -4.86,0 -9.032,-1.627 -12.514,-4.88 -3.483,-3.254 -5.899,-7.753 -7.246,-13.498 -0.703,-2.99 -1.054,-9.467 -1.054,-19.431 V -95.777 H 0 Z" /></g><g
           transform="translate(463.7129,134.0007)"
           id="g46"><path
             id="path48"
             style="fill:#f0dfc0;fill-opacity:1;fill-rule:nonzero;stroke:none"
             d="m 0,0 h 20.599 v -12.06 c 2.229,4.753 5.194,8.363 8.89,10.828 3.699,2.464 7.747,3.697 12.15,3.697 3.109,0 6.366,-0.823 9.77,-2.465 l -7.482,-20.687 c -2.818,1.408 -5.136,2.112 -6.954,2.112 -3.698,0 -6.824,-2.288 -9.375,-6.866 -2.554,-4.578 -3.83,-13.557 -3.83,-26.937 l 0.087,-4.666 v -38.733 l -23.855,0 z" /></g><g
           transform="translate(517.1797,63.3122)"
           id="g50"><path
             id="path52"
             style="fill:#f0dfc0;fill-opacity:1;fill-rule:nonzero;stroke:none"
             d="m 0,0 c 3.813,0 7.071,-1.335 9.771,-4.005 2.699,-2.671 4.049,-5.913 4.049,-9.727 0,-3.816 -1.35,-7.074 -4.049,-9.772 -2.7,-2.699 -5.958,-4.049 -9.771,-4.049 -3.816,0 -7.073,1.35 -9.771,4.049 -2.701,2.698 -4.05,5.956 -4.05,9.772 0,3.814 1.349,7.056 4.05,9.727 C -7.073,-1.335 -3.816,0 0,0" /></g></g></g></g></svg>